<?xml version="1.0" encoding="utf-8"?>
<!-- Generator: Adobe Illustrator 23.0.1, SVG Export Plug-In . SVG Version: 6.00 Build 0)  -->
<svg version="1.1" id="Layer_1" xmlns="http://www.w3.org/2000/svg" xmlns:xlink="http://www.w3.org/1999/xlink" x="0px" y="0px"
	 viewBox="0 0 909.6 340.42" style="enable-background:new 0 0 909.6 340.42;" xml:space="preserve">
<path d="M1.96,336.19c-0.78,0.69-2.96,1.68-1.41,3.43c1.55,1.74,4.26-0.22,4.26-0.22s172.42-113.07,290.41-107.24
	c117.99,5.83,144.29,99.69,144.29,99.69c0.76,2.17,2.25,2.35,2.25,2.35l6.46,0.12c2.32-0.22,2.63-2.5,2.63-2.5
	s36.68-91.49,132.9-94.44c113.67-3.49,321.78,101.26,321.78,101.26c2.26,1.79,2.77,2.11,4.08,0.83c1.32-1.28-1.17-4.2-1.17-4.2
	L460.32,6.54c-16.43-15.5-36.21,1.39-36.21,1.39C361.64,52.04,2.73,335.5,1.96,336.19z"/>
</svg>
